<?xml version="1.0" encoding="UTF-8"?>
<svg width="16px" height="16px" viewBox="0 0 16 16" version="1.1" xmlns="http://www.w3.org/2000/svg" xmlns:xlink="http://www.w3.org/1999/xlink">
    <g id="Page-1" stroke="none" stroke-width="1" fill="none" fill-rule="evenodd">
        <g id="Style-Guide-Desktop-Part-1" transform="translate(-1265.000000, -2366.000000)" fill-rule="nonzero">
            <g id="Check-box-btn" transform="translate(822.000000, 2190.000000)">
                <g id="desktop/checkbox/default" transform="translate(444.000000, 177.000000)">
                    <rect id="Rectangle" stroke="currentColor" stroke-linecap="round" x="0" y="0" width="14" height="14" rx="1"></rect>
                    <rect id="Rectangle" fill="#3A76D7" x="2" y="2" width="10" height="10"></rect>
                    <path d="M9.91788373,4.60349086 C9.82287487,4.76100822 9.72259662,4.92414209 9.62758777,5.08157435 C9.37952684,5.46970869 9.13681515,5.86345955 8.89402362,6.2572104 C8.59845827,6.72976248 8.30824215,7.19661295 8.01267679,7.66907994 C7.74880767,8.0909984 7.48493855,8.51283176 7.22633882,8.93475022 C7.07855614,9.16536721 6.9361227,9.4016007 6.78834003,9.62660118 C6.60367156,9.90223529 6.20782795,10.1047698 5.9017238,9.9416359 C5.78036796,9.87976928 5.63258528,9.75603603 5.55346446,9.63791929 C5.54292567,9.62106978 5.53230703,9.60413517 5.51649883,9.58728567 C5.4848026,9.53665205 5.45318621,9.49163493 5.42148998,9.44100131 C5.37398555,9.36790168 5.32648113,9.29480206 5.2789767,9.22161733 C5.22093348,9.13158309 5.16289025,9.04725046 5.09949779,8.95721623 C5.03618517,8.85594899 4.96752331,8.75468175 4.90421069,8.65911611 C4.83562867,8.55223237 4.76696681,8.45096513 4.69838479,8.3496979 C4.63507217,8.25404716 4.56641031,8.15286502 4.50309769,8.05159778 C4.44505446,7.96164865 4.38701124,7.87161441 4.32369862,7.78158018 C4.28146359,7.71409705 4.23395916,7.64652883 4.18645474,7.5735143 C4.14948911,7.51726418 4.11252348,7.46101405 4.07563769,7.40467883 C4.07036829,7.39906233 4.06509889,7.38782933 4.05982949,7.37659632 C4.02813326,7.3203462 4.01232507,7.25847958 4.00178627,7.19099645 C3.99124747,7.08972921 4.02813326,6.98284547 4.09152572,6.90974584 C4.14956895,6.84787922 4.2287696,6.8028621 4.30789042,6.78039609 C4.30789042,6.78039609 4.41343807,6.74099548 4.58764758,6.85911223 L6.08120271,8.19235073 C6.18675036,8.06853239 6.28702861,7.93918264 6.39257626,7.80983289 C6.64590659,7.50041467 6.90450631,7.18546505 7.15783664,6.87604683 C7.47447959,6.49352898 7.78585314,6.10539464 8.09722669,5.72287679 C8.38225325,5.37975956 8.66719997,5.03664233 8.94695712,4.68790859 C9.110548,4.47975762 9.27413887,4.27160664 9.46415658,4.08039026 C9.61193925,3.93410591 9.79133832,4.00720554 9.9180434,4.14225689 C9.91788373,4.14225689 10.102632,4.33917486 9.91788373,4.60349086 Z" id="Path" fill="#FFFFFF"></path>
                </g>
            </g>
        </g>
    </g>
</svg>
